<svg width="275" height="78" viewBox="0 0 275 78" fill="none" xmlns="http://www.w3.org/2000/svg">
<path d="M5.83355 7.57739C6.34733 6.49643 7.07518 5.66164 8.0064 5.06229C8.93763 4.46295 10.0294 4.16328 11.271 4.16328C12.1594 4.16328 13.0264 4.36663 13.8613 4.77333C14.6962 5.18002 15.4241 5.75796 16.0449 6.49643C16.6657 7.24561 17.1046 8.09111 17.3722 9.03293H21.7393C21.3968 7.23491 20.7331 5.65093 19.7484 4.28101C18.7636 2.91109 17.5434 1.86224 16.077 1.11306C14.6106 0.374588 13.0157 0 11.271 0C9.16241 0 7.31066 0.470911 5.71581 1.41273C4.12095 2.35456 2.89003 3.68167 2.01232 5.39407C1.13461 7.10648 0.685059 9.09715 0.685059 11.3554V19.6926C0.685059 21.9509 1.12391 23.9308 2.00162 25.6539C2.87932 27.3771 4.12095 28.6935 5.71581 29.6246C7.31066 30.5557 9.16241 31.0266 11.271 31.0266C12.9943 31.0266 14.5999 30.652 16.0556 29.9136C17.522 29.1644 18.7422 28.1155 19.7377 26.7456C20.7224 25.3757 21.3968 23.8024 21.75 22.0044H17.3829C17.1153 23.0211 16.6764 23.8987 16.0556 24.6372C15.4348 25.3757 14.7069 25.9322 13.8827 26.3068C13.0586 26.6814 12.1916 26.874 11.2817 26.874C10.0401 26.874 8.95903 26.5744 8.01711 25.9857C7.08588 25.3971 6.35803 24.5516 5.84425 23.4706C5.33047 22.379 5.07358 21.1268 5.07358 19.7033V11.3661C5.06288 9.91054 5.31977 8.65834 5.83355 7.57739Z" fill="black"/>
<path d="M45.0841 13.71H32.0791V0.310425H27.819V30.7056H32.0791V17.7662H45.0841V30.7056H49.3442V0.310425H45.0841V13.71Z" fill="black"/>
<path d="M61.5571 0.310425H57.297V30.7056H61.5571V0.310425Z" fill="black"/>
<path d="M77.3772 0.310425L66.1704 30.7056H70.773L73.0636 24.0379H85.3301L87.6207 30.7056H92.2233L81.0165 0.310425H77.3772ZM74.4551 19.9817L79.1968 6.18611L83.9386 19.9817H74.4551Z" fill="black"/>
<path d="M116.178 14.0311L109.531 0.310425H104.789L114.048 18.3549V30.7056H118.319V18.3549L127.578 0.310425H122.825L116.178 14.0311Z" fill="black"/>
<path d="M147.401 19.8532C147.401 22.0687 146.844 23.7811 145.72 24.9904C144.597 26.1998 143.012 26.8099 140.968 26.8099C138.934 26.8099 137.361 26.1998 136.248 24.9904C135.134 23.7811 134.578 22.0687 134.578 19.8532V0.310425H130.318V19.7141C130.318 22.1008 130.735 24.1342 131.57 25.8252C132.405 27.5162 133.625 28.8112 135.22 29.6889C136.815 30.5772 138.731 31.016 140.979 31.016C143.237 31.016 145.164 30.5772 146.769 29.6889C148.375 28.8005 149.595 27.5162 150.43 25.8252C151.265 24.1342 151.682 22.0901 151.682 19.7141V0.310425H147.422V19.8532H147.401Z" fill="black"/>
<path d="M187.69 1.47692C186.309 0.706336 184.714 0.321045 182.905 0.321045H175.402H173.336H171.142V30.7162H175.402V18.922H182.905C184.714 18.922 186.309 18.5367 187.69 17.7769C189.071 17.0063 190.141 15.9253 190.901 14.5233C191.661 13.1213 192.036 11.4945 192.036 9.64294C192.036 7.79141 191.661 6.16462 190.901 4.75189C190.141 3.33916 189.071 2.2475 187.69 1.47692ZM187.09 12.3721C186.705 13.1641 186.17 13.7848 185.474 14.2129C184.778 14.641 183.965 14.8658 183.044 14.8658H175.391V4.3773H183.044C183.965 4.3773 184.768 4.60206 185.474 5.04086C186.181 5.47966 186.716 6.10041 187.09 6.8924C187.465 7.68438 187.668 8.6048 187.668 9.65365C187.668 10.6704 187.476 11.5801 187.09 12.3721Z" fill="black"/>
<path d="M199.86 0.310425H197.794V30.7056H199.86H202.065H217.318V26.6493H202.065V17.6378H215.016V13.5923H202.065V4.36668H217.318V0.310425H202.065H199.86Z" fill="black"/>
<path d="M242.043 23.0212L227.679 0.310425H223.815V30.6842H228.032V8.32662L242.354 30.6842H246.261V0.310425H242.043V23.0212Z" fill="black"/>
<path d="M264.468 14.3414V18.419H270.633V19.7355C270.633 21.2124 270.376 22.486 269.862 23.5563C269.348 24.6265 268.61 25.4506 267.668 26.0071C266.726 26.5637 265.624 26.8526 264.36 26.8526C263.097 26.8526 261.974 26.5851 261.01 26.0392C260.047 25.4934 259.298 24.7335 258.762 23.7489C258.227 22.7643 257.96 21.6298 257.96 20.3134V11.3447C257.96 9.91054 258.217 8.64764 258.73 7.56668C259.244 6.48573 259.983 5.65093 260.925 5.05159C261.877 4.45225 262.969 4.15258 264.232 4.15258C265.099 4.15258 265.934 4.34522 266.737 4.73052C267.54 5.11581 268.246 5.67234 268.845 6.40011C269.445 7.12788 269.873 8.00549 270.119 9.02223H274.743C274.39 7.2242 273.726 5.64023 272.731 4.28101C271.746 2.91109 270.515 1.86224 269.038 1.11306C267.572 0.363886 265.966 0 264.221 0C262.102 0 260.24 0.470911 258.634 1.41273C257.028 2.35456 255.776 3.68167 254.898 5.39407C254.021 7.10648 253.582 9.09715 253.582 11.3554V20.3241C253.582 22.4539 254.031 24.3268 254.92 25.9429C255.808 27.559 257.071 28.8112 258.698 29.6995C260.325 30.5878 262.209 31.0266 264.35 31.0266C266.469 31.0266 268.332 30.5557 269.937 29.6139C271.543 28.6721 272.795 27.3449 273.673 25.6218C274.55 23.8987 274.989 21.9081 274.989 19.6498V14.3414H264.468Z" fill="black"/>
<path d="M10.7572 58.7997C9.85813 58.2967 8.81987 58.0505 7.64246 58.0505H2.77226H1.42359H0V77.8074H2.77226V70.1444H7.65316C8.83057 70.1444 9.86883 69.8982 10.7679 69.3952C11.6671 68.8922 12.3628 68.1965 12.8552 67.2868C13.3475 66.3771 13.5937 65.3175 13.5937 64.1189C13.5937 62.9202 13.3475 61.8499 12.8552 60.9402C12.3521 60.0091 11.6564 59.3027 10.7572 58.7997ZM10.3719 65.8848C10.1257 66.3985 9.7725 66.7945 9.32294 67.0835C8.87338 67.3724 8.3489 67.5009 7.74949 67.5009H2.77226V60.6834H7.74949C8.3489 60.6834 8.87338 60.8225 9.32294 61.1115C9.7725 61.4004 10.1257 61.7964 10.3719 62.3101C10.6181 62.8239 10.7465 63.4232 10.7465 64.1082C10.7465 64.7717 10.6288 65.3711 10.3719 65.8848Z" fill="black"/>
<path d="M28.6217 58.7462C27.5728 58.1468 26.3526 57.8472 24.9825 57.8472C23.6124 57.8472 22.3922 58.1468 21.3432 58.7462C20.2943 59.3455 19.4808 60.2017 18.9028 61.3041C18.3248 62.4064 18.0358 63.68 18.0358 65.1249V70.7223C18.0358 72.1671 18.3248 73.4514 18.9028 74.5431C19.4808 75.6455 20.2943 76.491 21.3432 77.101C22.3922 77.7111 23.6124 78 24.9825 78C26.3526 78 27.5728 77.7003 28.6217 77.101C29.6707 76.5017 30.4842 75.6455 31.0622 74.5431C31.6402 73.4407 31.9292 72.1671 31.9292 70.7223V65.1249C31.9292 63.68 31.6402 62.3957 31.0622 61.3041C30.4842 60.191 29.6707 59.3455 28.6217 58.7462ZM29.082 70.8186C29.082 71.7069 28.9107 72.4882 28.5682 73.1625C28.2257 73.8367 27.744 74.3612 27.1232 74.725C26.5024 75.0889 25.7853 75.2709 24.9718 75.2709C24.1583 75.2709 23.4411 75.0889 22.8203 74.725C22.1995 74.3612 21.7178 73.8367 21.3753 73.1625C21.0328 72.4882 20.8615 71.7069 20.8615 70.8186V65.0286C20.8615 64.1402 21.0328 63.359 21.3753 62.6847C21.7178 62.0104 22.1995 61.486 22.8203 61.1221C23.4411 60.7583 24.1583 60.5763 24.9718 60.5763C25.7853 60.5763 26.5024 60.7583 27.1232 61.1221C27.744 61.486 28.2257 62.0104 28.5682 62.6847C28.9107 63.359 29.082 64.1402 29.082 65.0286V70.8186Z" fill="black"/>
<path d="M48.3701 68.7316C49.2371 68.2607 49.9115 67.5971 50.3824 66.7302C50.8534 65.8633 51.0996 64.868 51.0996 63.7335C51.0996 62.599 50.8641 61.6037 50.3824 60.7368C49.9115 59.8699 49.2371 59.2063 48.3701 58.7354C47.5031 58.2645 46.497 58.0291 45.3624 58.0291H40.2888H38.7261H37.5165V77.7966H40.2888V69.4379H44.4204L48.6377 77.7966H51.9237L47.364 69.1383C47.7172 69.0312 48.049 68.9028 48.3701 68.7316ZM40.2995 60.6619H45.4801C46.0153 60.6619 46.4863 60.7903 46.8823 61.0472C47.289 61.304 47.5994 61.6572 47.8242 62.1281C48.049 62.599 48.156 63.1342 48.156 63.7335C48.156 64.3328 48.049 64.8787 47.8242 65.3389C47.5994 65.8098 47.289 66.163 46.8823 66.4198C46.4756 66.6767 46.0046 66.8051 45.4801 66.8051H40.2995V60.6619Z" fill="black"/>
<path d="M54.3428 60.6833H59.9301V77.7967H62.7024V60.6833H68.2897V58.0398H54.3428V60.6833Z" fill="black"/>
<path d="M73.7593 58.0398H72.4V77.7967H75.1722V69.4808H83.3392V66.848H75.1722V60.6833H84.827V58.0398H75.1722H73.7593Z" fill="black"/>
<path d="M99.5232 58.7462C98.4742 58.1468 97.254 57.8472 95.8839 57.8472C94.5138 57.8472 93.2936 58.1468 92.2446 58.7462C91.1957 59.3455 90.3822 60.2017 89.8042 61.3041C89.2262 62.4064 88.9372 63.68 88.9372 65.1249V70.7223C88.9372 72.1671 89.2262 73.4514 89.8042 74.5431C90.3822 75.6455 91.1957 76.491 92.2446 77.101C93.2936 77.7111 94.5138 78 95.8839 78C97.254 78 98.4742 77.7003 99.5232 77.101C100.572 76.5017 101.386 75.6455 101.964 74.5431C102.542 73.4407 102.831 72.1671 102.831 70.7223V65.1249C102.831 63.68 102.542 62.3957 101.964 61.3041C101.386 60.191 100.572 59.3455 99.5232 58.7462ZM99.9834 70.8186C99.9834 71.7069 99.8122 72.4882 99.4697 73.1625C99.1271 73.8367 98.6455 74.3612 98.0247 74.725C97.4038 75.0889 96.6867 75.2709 95.8732 75.2709C95.0597 75.2709 94.3426 75.0889 93.7218 74.725C93.1009 74.3612 92.6193 73.8367 92.2768 73.1625C91.9342 72.4882 91.763 71.7069 91.763 70.8186V65.0286C91.763 64.1402 91.9342 63.359 92.2768 62.6847C92.6193 62.0104 93.1009 61.486 93.7218 61.1221C94.3426 60.7583 95.0597 60.5763 95.8732 60.5763C96.6867 60.5763 97.4038 60.7583 98.0247 61.1221C98.6455 61.486 99.1271 62.0104 99.4697 62.6847C99.8122 63.359 99.9834 64.1402 99.9834 65.0286V70.8186Z" fill="black"/>
<path d="M111.201 58.0398H108.429V77.7967H109.82H111.201H121.123V75.1638H111.201V58.0398Z" fill="black"/>
<path d="M128.541 58.0398H125.769V77.7967H128.541V58.0398Z" fill="black"/>
<path d="M145.003 58.7462C143.954 58.1468 142.734 57.8472 141.364 57.8472C139.994 57.8472 138.774 58.1468 137.725 58.7462C136.676 59.3455 135.862 60.2017 135.284 61.3041C134.706 62.4064 134.417 63.68 134.417 65.1249V70.7223C134.417 72.1671 134.706 73.4514 135.284 74.5431C135.862 75.6455 136.676 76.491 137.725 77.101C138.774 77.7111 139.994 78 141.364 78C142.734 78 143.954 77.7003 145.003 77.101C146.052 76.5017 146.866 75.6455 147.444 74.5431C148.022 73.4407 148.311 72.1671 148.311 70.7223V65.1249C148.311 63.68 148.022 62.3957 147.444 61.3041C146.876 60.191 146.063 59.3455 145.003 58.7462ZM145.474 70.8186C145.474 71.7069 145.303 72.4882 144.961 73.1625C144.618 73.8367 144.136 74.3612 143.516 74.725C142.895 75.0889 142.178 75.2709 141.364 75.2709C140.551 75.2709 139.833 75.0889 139.213 74.725C138.592 74.3612 138.11 73.8367 137.768 73.1625C137.425 72.4882 137.254 71.7069 137.254 70.8186V65.0286C137.254 64.1402 137.425 63.359 137.768 62.6847C138.11 62.0104 138.592 61.486 139.213 61.1221C139.833 60.7583 140.551 60.5763 141.364 60.5763C142.178 60.5763 142.895 60.7583 143.516 61.1221C144.136 61.486 144.618 62.0104 144.961 62.6847C145.303 63.359 145.474 64.1402 145.474 65.0286V70.8186Z" fill="black"/>
<path d="M155.536 74.8856H152.624V77.7967H155.536V74.8856Z" fill="black"/>
</svg>
